<mxfile host="app.diagrams.net" modified="2024-03-23T19:07:57.191Z" agent="Mozilla/5.0 (Windows NT 10.0; Win64; x64) AppleWebKit/537.36 (KHTML, like Gecko) Chrome/123.0.0.0 Safari/537.36" etag="iqUvaR26E3Y2rTUyh3xU" version="24.1.0" type="device">
  <diagram name="Page-1" id="rPX4ERfShnZYE_yssuc1">
    <mxGraphModel dx="1235" dy="624" grid="1" gridSize="10" guides="1" tooltips="1" connect="1" arrows="1" fold="1" page="1" pageScale="1" pageWidth="850" pageHeight="1100" math="0" shadow="0">
      <root>
        <mxCell id="0" />
        <mxCell id="1" parent="0" />
        <mxCell id="bGMTeO5C1YBrw9A4h8DC-1" value="Actor:&lt;br&gt;Zaposleni" style="shape=umlActor;verticalLabelPosition=bottom;verticalAlign=top;html=1;outlineConnect=0;" parent="1" vertex="1">
          <mxGeometry x="10" y="10" width="30" height="60" as="geometry" />
        </mxCell>
        <mxCell id="bGMTeO5C1YBrw9A4h8DC-2" value="f: AddTechReport" style="rounded=0;whiteSpace=wrap;html=1;" parent="1" vertex="1">
          <mxGeometry x="160" y="70" width="110" height="40" as="geometry" />
        </mxCell>
        <mxCell id="bGMTeO5C1YBrw9A4h8DC-3" value="trd: TechnicalReportData" style="rounded=0;whiteSpace=wrap;html=1;" parent="1" vertex="1">
          <mxGeometry x="453" y="70" width="140" height="40" as="geometry" />
        </mxCell>
        <mxCell id="bGMTeO5C1YBrw9A4h8DC-5" value="b: Broker" style="rounded=0;whiteSpace=wrap;html=1;" parent="1" vertex="1">
          <mxGeometry x="910" y="70" width="120" height="40" as="geometry" />
        </mxCell>
        <mxCell id="bGMTeO5C1YBrw9A4h8DC-6" value="" style="endArrow=none;dashed=1;html=1;rounded=0;" parent="1" edge="1">
          <mxGeometry width="50" height="50" relative="1" as="geometry">
            <mxPoint x="20" y="1080" as="sourcePoint" />
            <mxPoint x="20" y="120" as="targetPoint" />
          </mxGeometry>
        </mxCell>
        <mxCell id="bGMTeO5C1YBrw9A4h8DC-7" value="" style="endArrow=none;dashed=1;html=1;rounded=0;" parent="1" edge="1">
          <mxGeometry width="50" height="50" relative="1" as="geometry">
            <mxPoint x="210" y="1080" as="sourcePoint" />
            <mxPoint x="214.5" y="120" as="targetPoint" />
          </mxGeometry>
        </mxCell>
        <mxCell id="bGMTeO5C1YBrw9A4h8DC-8" value="" style="endArrow=none;dashed=1;html=1;rounded=0;" parent="1" edge="1">
          <mxGeometry width="50" height="50" relative="1" as="geometry">
            <mxPoint x="523" y="1080" as="sourcePoint" />
            <mxPoint x="522.5" y="120" as="targetPoint" />
          </mxGeometry>
        </mxCell>
        <mxCell id="bGMTeO5C1YBrw9A4h8DC-9" value="" style="endArrow=none;dashed=1;html=1;rounded=0;" parent="1" edge="1">
          <mxGeometry width="50" height="50" relative="1" as="geometry">
            <mxPoint x="970" y="1080" as="sourcePoint" />
            <mxPoint x="969.5" y="120" as="targetPoint" />
          </mxGeometry>
        </mxCell>
        <mxCell id="bGMTeO5C1YBrw9A4h8DC-10" value="" style="endArrow=classic;html=1;rounded=0;" parent="1" edge="1">
          <mxGeometry width="50" height="50" relative="1" as="geometry">
            <mxPoint x="20" y="140" as="sourcePoint" />
            <mxPoint x="214" y="140" as="targetPoint" />
          </mxGeometry>
        </mxCell>
        <mxCell id="bGMTeO5C1YBrw9A4h8DC-11" value="Start()" style="text;html=1;align=center;verticalAlign=middle;resizable=0;points=[];autosize=1;strokeColor=none;fillColor=none;" parent="1" vertex="1">
          <mxGeometry x="90" y="118" width="60" height="30" as="geometry" />
        </mxCell>
        <mxCell id="bGMTeO5C1YBrw9A4h8DC-12" value="EmployeesList = GetAllEmployees()" style="text;whiteSpace=wrap;" parent="1" vertex="1">
          <mxGeometry x="270" y="140" width="205" height="40" as="geometry" />
        </mxCell>
        <mxCell id="bGMTeO5C1YBrw9A4h8DC-13" value="" style="endArrow=classic;html=1;rounded=0;" parent="1" edge="1">
          <mxGeometry width="50" height="50" relative="1" as="geometry">
            <mxPoint x="215" y="168" as="sourcePoint" />
            <mxPoint x="520" y="168" as="targetPoint" />
          </mxGeometry>
        </mxCell>
        <mxCell id="bGMTeO5C1YBrw9A4h8DC-14" value="" style="endArrow=classic;html=1;rounded=0;" parent="1" edge="1">
          <mxGeometry width="50" height="50" relative="1" as="geometry">
            <mxPoint x="520" y="188" as="sourcePoint" />
            <mxPoint x="970" y="188" as="targetPoint" />
          </mxGeometry>
        </mxCell>
        <mxCell id="bGMTeO5C1YBrw9A4h8DC-15" value="data = LoadData&lt;T&gt;(storeProcedure, parameters)" style="text;whiteSpace=wrap;" parent="1" vertex="1">
          <mxGeometry x="593" y="166" width="297" height="40" as="geometry" />
        </mxCell>
        <mxCell id="bGMTeO5C1YBrw9A4h8DC-16" value="TechnicalInspectionTypeList = GetAllTechnicalTypes()" style="text;whiteSpace=wrap;" parent="1" vertex="1">
          <mxGeometry x="220" y="200" width="300" height="40" as="geometry" />
        </mxCell>
        <mxCell id="bGMTeO5C1YBrw9A4h8DC-17" value="" style="endArrow=classic;html=1;rounded=0;" parent="1" edge="1">
          <mxGeometry width="50" height="50" relative="1" as="geometry">
            <mxPoint x="215" y="228" as="sourcePoint" />
            <mxPoint x="520" y="228" as="targetPoint" />
          </mxGeometry>
        </mxCell>
        <mxCell id="bGMTeO5C1YBrw9A4h8DC-20" value="" style="endArrow=classic;html=1;rounded=0;" parent="1" edge="1">
          <mxGeometry width="50" height="50" relative="1" as="geometry">
            <mxPoint x="520" y="252" as="sourcePoint" />
            <mxPoint x="970" y="252" as="targetPoint" />
          </mxGeometry>
        </mxCell>
        <mxCell id="bGMTeO5C1YBrw9A4h8DC-21" value="data = LoadData&lt;T&gt;(storeProcedure, parameters)" style="text;whiteSpace=wrap;" parent="1" vertex="1">
          <mxGeometry x="593" y="230" width="297" height="40" as="geometry" />
        </mxCell>
        <mxCell id="bGMTeO5C1YBrw9A4h8DC-22" value="" style="endArrow=open;html=1;rounded=0;endFill=0;" parent="1" edge="1">
          <mxGeometry width="50" height="50" relative="1" as="geometry">
            <mxPoint x="20" y="290" as="sourcePoint" />
            <mxPoint x="213" y="290" as="targetPoint" />
          </mxGeometry>
        </mxCell>
        <mxCell id="bGMTeO5C1YBrw9A4h8DC-23" value="Unos podataka&amp;nbsp;" style="text;html=1;align=center;verticalAlign=middle;resizable=0;points=[];autosize=1;strokeColor=none;fillColor=none;" parent="1" vertex="1">
          <mxGeometry x="66" y="268" width="110" height="30" as="geometry" />
        </mxCell>
        <mxCell id="bGMTeO5C1YBrw9A4h8DC-24" value="AddRow()" style="text;whiteSpace=wrap;" parent="1" vertex="1">
          <mxGeometry x="90" y="310" width="80" height="40" as="geometry" />
        </mxCell>
        <mxCell id="bGMTeO5C1YBrw9A4h8DC-25" value="" style="endArrow=classic;html=1;rounded=0;" parent="1" edge="1">
          <mxGeometry width="50" height="50" relative="1" as="geometry">
            <mxPoint x="20" y="330" as="sourcePoint" />
            <mxPoint x="213" y="330" as="targetPoint" />
          </mxGeometry>
        </mxCell>
        <mxCell id="bGMTeO5C1YBrw9A4h8DC-26" value="" style="endArrow=classic;html=1;rounded=0;" parent="1" edge="1">
          <mxGeometry width="50" height="50" relative="1" as="geometry">
            <mxPoint x="20" y="372" as="sourcePoint" />
            <mxPoint x="213" y="372" as="targetPoint" />
          </mxGeometry>
        </mxCell>
        <mxCell id="bGMTeO5C1YBrw9A4h8DC-27" value="Unos podataka o stavkama&amp;nbsp;" style="text;html=1;align=center;verticalAlign=middle;resizable=0;points=[];autosize=1;strokeColor=none;fillColor=none;" parent="1" vertex="1">
          <mxGeometry x="36" y="350" width="170" height="30" as="geometry" />
        </mxCell>
        <mxCell id="bGMTeO5C1YBrw9A4h8DC-28" value="" style="endArrow=classic;html=1;rounded=0;" parent="1" edge="1">
          <mxGeometry width="50" height="50" relative="1" as="geometry">
            <mxPoint x="20" y="410" as="sourcePoint" />
            <mxPoint x="213" y="410" as="targetPoint" />
          </mxGeometry>
        </mxCell>
        <mxCell id="bGMTeO5C1YBrw9A4h8DC-29" value="ZapisiMethod()" style="text;html=1;align=center;verticalAlign=middle;resizable=0;points=[];autosize=1;strokeColor=none;fillColor=none;" parent="1" vertex="1">
          <mxGeometry x="60" y="388" width="100" height="30" as="geometry" />
        </mxCell>
        <mxCell id="bGMTeO5C1YBrw9A4h8DC-30" value="" style="endArrow=classic;html=1;rounded=0;" parent="1" edge="1">
          <mxGeometry width="50" height="50" relative="1" as="geometry">
            <mxPoint x="215" y="430" as="sourcePoint" />
            <mxPoint x="215" y="460" as="targetPoint" />
            <Array as="points">
              <mxPoint x="310" y="430" />
              <mxPoint x="310" y="460" />
            </Array>
          </mxGeometry>
        </mxCell>
        <mxCell id="bGMTeO5C1YBrw9A4h8DC-31" value="&lt;div&gt;Validation(&lt;span style=&quot;background-color: initial;&quot;&gt;Marka,&lt;/span&gt;&lt;span style=&quot;background-color: initial;&quot;&gt;Model,&lt;/span&gt;&lt;span style=&quot;background-color: initial;&quot;&gt;Godiste,&lt;/span&gt;&lt;span style=&quot;background-color: initial;&quot;&gt;ImeVlasnika,&lt;/span&gt;&lt;/div&gt;&lt;div&gt;&lt;span style=&quot;background-color: initial;&quot;&gt;PrezimeVlasnika,&lt;/span&gt;&lt;span style=&quot;background-color: initial;&quot;&gt;selectedEmployeeId,&lt;/span&gt;&lt;/div&gt;&lt;div&gt;&lt;span style=&quot;background-color: initial;&quot;&gt;selectedTechTypeId,&amp;nbsp;&lt;/span&gt;&lt;span style=&quot;background-color: initial;&quot;&gt;DefectiveItemsList)&lt;/span&gt;&lt;/div&gt;" style="text;html=1;align=center;verticalAlign=middle;resizable=0;points=[];autosize=1;strokeColor=none;fillColor=none;" parent="1" vertex="1">
          <mxGeometry x="220" y="380" width="270" height="60" as="geometry" />
        </mxCell>
        <mxCell id="bGMTeO5C1YBrw9A4h8DC-32" value="je: JsonElement" style="rounded=0;whiteSpace=wrap;html=1;" parent="1" vertex="1">
          <mxGeometry x="327.5" y="480" width="90" height="30" as="geometry" />
        </mxCell>
        <mxCell id="bGMTeO5C1YBrw9A4h8DC-33" value="" style="endArrow=none;dashed=1;html=1;rounded=0;" parent="1" edge="1">
          <mxGeometry width="50" height="50" relative="1" as="geometry">
            <mxPoint x="367.5" y="520" as="sourcePoint" />
            <mxPoint x="368" y="1080" as="targetPoint" />
          </mxGeometry>
        </mxCell>
        <mxCell id="bGMTeO5C1YBrw9A4h8DC-34" value="" style="endArrow=none;dashed=1;html=1;rounded=0;strokeWidth=1;strokeColor=default;startArrow=open;startFill=0;" parent="1" edge="1">
          <mxGeometry width="50" height="50" relative="1" as="geometry">
            <mxPoint x="366" y="544" as="sourcePoint" />
            <mxPoint x="217" y="543" as="targetPoint" />
          </mxGeometry>
        </mxCell>
        <mxCell id="bGMTeO5C1YBrw9A4h8DC-35" value="New()" style="text;html=1;align=center;verticalAlign=middle;resizable=0;points=[];autosize=1;strokeColor=none;fillColor=none;" parent="1" vertex="1">
          <mxGeometry x="260" y="520" width="60" height="30" as="geometry" />
        </mxCell>
        <mxCell id="bGMTeO5C1YBrw9A4h8DC-36" value="" style="endArrow=classic;html=1;rounded=0;" parent="1" edge="1">
          <mxGeometry width="50" height="50" relative="1" as="geometry">
            <mxPoint x="217.5" y="590" as="sourcePoint" />
            <mxPoint x="522.5" y="590" as="targetPoint" />
          </mxGeometry>
        </mxCell>
        <mxCell id="bGMTeO5C1YBrw9A4h8DC-37" value="result = AddNewTechReportTransaction(je, DefectiveItemsList)" style="text;whiteSpace=wrap;" parent="1" vertex="1">
          <mxGeometry x="206" y="566" width="347.5" height="40" as="geometry" />
        </mxCell>
        <mxCell id="bGMTeO5C1YBrw9A4h8DC-38" value="" style="endArrow=classic;html=1;rounded=0;" parent="1" edge="1">
          <mxGeometry width="50" height="50" relative="1" as="geometry">
            <mxPoint x="520" y="620" as="sourcePoint" />
            <mxPoint x="970" y="620" as="targetPoint" />
          </mxGeometry>
        </mxCell>
        <mxCell id="bGMTeO5C1YBrw9A4h8DC-40" value="result = AddDataTransaction(je, DefectiveItemsList)" style="text;whiteSpace=wrap;" parent="1" vertex="1">
          <mxGeometry x="613" y="600" width="297" height="40" as="geometry" />
        </mxCell>
        <mxCell id="bGMTeO5C1YBrw9A4h8DC-41" value="" style="endArrow=classic;html=1;rounded=0;" parent="1" edge="1">
          <mxGeometry width="50" height="50" relative="1" as="geometry">
            <mxPoint x="520" y="650" as="sourcePoint" />
            <mxPoint x="970" y="650" as="targetPoint" />
          </mxGeometry>
        </mxCell>
        <mxCell id="bGMTeO5C1YBrw9A4h8DC-42" value="GetConnString(&quot;LocalDB&quot;)" style="text;html=1;align=center;verticalAlign=middle;resizable=0;points=[];autosize=1;strokeColor=none;fillColor=none;" parent="1" vertex="1">
          <mxGeometry x="666" y="627" width="160" height="30" as="geometry" />
        </mxCell>
        <mxCell id="bGMTeO5C1YBrw9A4h8DC-43" value="" style="endArrow=classic;html=1;rounded=0;" parent="1" edge="1">
          <mxGeometry width="50" height="50" relative="1" as="geometry">
            <mxPoint x="521" y="680" as="sourcePoint" />
            <mxPoint x="971" y="680" as="targetPoint" />
          </mxGeometry>
        </mxCell>
        <mxCell id="bGMTeO5C1YBrw9A4h8DC-46" value="Open()" style="text;html=1;align=center;verticalAlign=middle;resizable=0;points=[];autosize=1;strokeColor=none;fillColor=none;" parent="1" vertex="1">
          <mxGeometry x="716" y="657" width="60" height="30" as="geometry" />
        </mxCell>
        <mxCell id="bGMTeO5C1YBrw9A4h8DC-48" value="" style="endArrow=classic;html=1;rounded=0;" parent="1" edge="1">
          <mxGeometry width="50" height="50" relative="1" as="geometry">
            <mxPoint x="521" y="710" as="sourcePoint" />
            <mxPoint x="971" y="710" as="targetPoint" />
          </mxGeometry>
        </mxCell>
        <mxCell id="bGMTeO5C1YBrw9A4h8DC-50" value="BeginTransaction()" style="text;html=1;align=center;verticalAlign=middle;resizable=0;points=[];autosize=1;strokeColor=none;fillColor=none;" parent="1" vertex="1">
          <mxGeometry x="690" y="687" width="120" height="30" as="geometry" />
        </mxCell>
        <mxCell id="bGMTeO5C1YBrw9A4h8DC-51" value="" style="endArrow=classic;html=1;rounded=0;" parent="1" edge="1">
          <mxGeometry width="50" height="50" relative="1" as="geometry">
            <mxPoint x="521" y="740" as="sourcePoint" />
            <mxPoint x="971" y="740" as="targetPoint" />
          </mxGeometry>
        </mxCell>
        <mxCell id="bGMTeO5C1YBrw9A4h8DC-52" value="" style="endArrow=classic;html=1;rounded=0;" parent="1" edge="1">
          <mxGeometry width="50" height="50" relative="1" as="geometry">
            <mxPoint x="521" y="770" as="sourcePoint" />
            <mxPoint x="971" y="770" as="targetPoint" />
          </mxGeometry>
        </mxCell>
        <mxCell id="bGMTeO5C1YBrw9A4h8DC-53" value="" style="endArrow=classic;html=1;rounded=0;" parent="1" edge="1">
          <mxGeometry width="50" height="50" relative="1" as="geometry">
            <mxPoint x="521" y="870" as="sourcePoint" />
            <mxPoint x="971" y="870" as="targetPoint" />
          </mxGeometry>
        </mxCell>
        <mxCell id="bGMTeO5C1YBrw9A4h8DC-54" value="" style="endArrow=classic;html=1;rounded=0;" parent="1" edge="1">
          <mxGeometry width="50" height="50" relative="1" as="geometry">
            <mxPoint x="521" y="820" as="sourcePoint" />
            <mxPoint x="971" y="820" as="targetPoint" />
          </mxGeometry>
        </mxCell>
        <mxCell id="bGMTeO5C1YBrw9A4h8DC-56" value="TransactionManageData(transaction, storeProcedure, parameters)" style="text;whiteSpace=wrap;" parent="1" vertex="1">
          <mxGeometry x="580" y="717" width="440" height="40" as="geometry" />
        </mxCell>
        <mxCell id="bGMTeO5C1YBrw9A4h8DC-59" value="id = TransactionGetID(connection, transaction, storeProcedure)" style="text;whiteSpace=wrap;" parent="1" vertex="1">
          <mxGeometry x="588" y="746" width="390" height="40" as="geometry" />
        </mxCell>
        <mxCell id="bGMTeO5C1YBrw9A4h8DC-64" value="loop" style="shape=umlFrame;whiteSpace=wrap;html=1;pointerEvents=0;" parent="1" vertex="1">
          <mxGeometry x="500" y="780" width="500" height="60" as="geometry" />
        </mxCell>
        <mxCell id="bGMTeO5C1YBrw9A4h8DC-65" value="[Za svaku stavku u listi]" style="text;html=1;align=center;verticalAlign=middle;resizable=0;points=[];autosize=1;strokeColor=none;fillColor=none;" parent="1" vertex="1">
          <mxGeometry x="553.5" y="773" width="150" height="30" as="geometry" />
        </mxCell>
        <mxCell id="bGMTeO5C1YBrw9A4h8DC-68" value="TransactionManageData(transaction, storeProcedure, parameters)" style="text;whiteSpace=wrap;" parent="1" vertex="1">
          <mxGeometry x="580" y="800" width="440" height="40" as="geometry" />
        </mxCell>
        <mxCell id="bGMTeO5C1YBrw9A4h8DC-69" value="" style="endArrow=classic;html=1;rounded=0;" parent="1" edge="1">
          <mxGeometry width="50" height="50" relative="1" as="geometry">
            <mxPoint x="520" y="870" as="sourcePoint" />
            <mxPoint x="971" y="900" as="targetPoint" />
            <Array as="points">
              <mxPoint x="560" y="900" />
            </Array>
          </mxGeometry>
        </mxCell>
        <mxCell id="bGMTeO5C1YBrw9A4h8DC-70" value="[true] Commit()" style="text;html=1;align=center;verticalAlign=middle;resizable=0;points=[];autosize=1;strokeColor=none;fillColor=none;" parent="1" vertex="1">
          <mxGeometry x="696" y="848" width="100" height="30" as="geometry" />
        </mxCell>
        <mxCell id="bGMTeO5C1YBrw9A4h8DC-71" value="[false] Rollback()" style="text;html=1;align=center;verticalAlign=middle;resizable=0;points=[];autosize=1;strokeColor=none;fillColor=none;" parent="1" vertex="1">
          <mxGeometry x="691" y="878" width="110" height="30" as="geometry" />
        </mxCell>
        <mxCell id="bGMTeO5C1YBrw9A4h8DC-72" value="" style="endArrow=classic;html=1;rounded=0;" parent="1" edge="1">
          <mxGeometry width="50" height="50" relative="1" as="geometry">
            <mxPoint x="521" y="930" as="sourcePoint" />
            <mxPoint x="971" y="930" as="targetPoint" />
          </mxGeometry>
        </mxCell>
        <mxCell id="bGMTeO5C1YBrw9A4h8DC-74" value="Close()" style="text;html=1;align=center;verticalAlign=middle;resizable=0;points=[];autosize=1;strokeColor=none;fillColor=none;" parent="1" vertex="1">
          <mxGeometry x="703.5" y="908" width="60" height="30" as="geometry" />
        </mxCell>
        <mxCell id="bGMTeO5C1YBrw9A4h8DC-75" value="" style="endArrow=classic;html=1;rounded=0;" parent="1" edge="1">
          <mxGeometry width="50" height="50" relative="1" as="geometry">
            <mxPoint x="212" y="943" as="sourcePoint" />
            <mxPoint x="212" y="973" as="targetPoint" />
            <Array as="points">
              <mxPoint x="307" y="943" />
              <mxPoint x="307" y="973" />
            </Array>
          </mxGeometry>
        </mxCell>
        <mxCell id="bGMTeO5C1YBrw9A4h8DC-76" value="CheckResult(result)" style="text;html=1;align=center;verticalAlign=middle;resizable=0;points=[];autosize=1;strokeColor=none;fillColor=none;" parent="1" vertex="1">
          <mxGeometry x="210" y="920" width="130" height="30" as="geometry" />
        </mxCell>
        <mxCell id="bGMTeO5C1YBrw9A4h8DC-77" value="" style="endArrow=classic;html=1;rounded=0;" parent="1" edge="1">
          <mxGeometry width="50" height="50" relative="1" as="geometry">
            <mxPoint x="210" y="1013" as="sourcePoint" />
            <mxPoint x="210" y="1043" as="targetPoint" />
            <Array as="points">
              <mxPoint x="305" y="1013" />
              <mxPoint x="305" y="1043" />
            </Array>
          </mxGeometry>
        </mxCell>
        <mxCell id="bGMTeO5C1YBrw9A4h8DC-78" value="OcistiPolja()" style="text;html=1;align=center;verticalAlign=middle;resizable=0;points=[];autosize=1;strokeColor=none;fillColor=none;" parent="1" vertex="1">
          <mxGeometry x="227" y="988" width="90" height="30" as="geometry" />
        </mxCell>
      </root>
    </mxGraphModel>
  </diagram>
</mxfile>
